<mxfile host="app.diagrams.net" agent="Mozilla/5.0 (Windows NT 10.0; Win64; x64) AppleWebKit/537.36 (KHTML, like Gecko) Chrome/131.0.0.0 Safari/537.36 Edg/131.0.0.0" version="24.9.3">
  <diagram name="Page-1" id="bG8l3HCdxYYPTU4J25cE">
    <mxGraphModel dx="1282" dy="1710" grid="1" gridSize="10" guides="1" tooltips="1" connect="1" arrows="1" fold="1" page="1" pageScale="1" pageWidth="827" pageHeight="1169" math="0" shadow="0">
      <root>
        <mxCell id="0" />
        <mxCell id="1" parent="0" />
        <mxCell id="9ppKvF9D70RUMVK4zJBX-10" value="App Front" style="shape=umlLifeline;perimeter=lifelinePerimeter;whiteSpace=wrap;html=1;container=1;dropTarget=0;collapsible=0;recursiveResize=0;outlineConnect=0;portConstraint=eastwest;newEdgeStyle={&quot;curved&quot;:0,&quot;rounded&quot;:0};" parent="1" vertex="1">
          <mxGeometry x="130" y="40" width="100" height="480" as="geometry" />
        </mxCell>
        <mxCell id="9ppKvF9D70RUMVK4zJBX-13" value="" style="html=1;points=[[0,0,0,0,5],[0,1,0,0,-5],[1,0,0,0,5],[1,1,0,0,-5]];perimeter=orthogonalPerimeter;outlineConnect=0;targetShapes=umlLifeline;portConstraint=eastwest;newEdgeStyle={&quot;curved&quot;:0,&quot;rounded&quot;:0};" parent="9ppKvF9D70RUMVK4zJBX-10" vertex="1">
          <mxGeometry x="46" y="80" width="10" height="350" as="geometry" />
        </mxCell>
        <mxCell id="9ppKvF9D70RUMVK4zJBX-11" value="Ligne avion - Cargo, commercial, militaire" style="shape=umlLifeline;perimeter=lifelinePerimeter;whiteSpace=wrap;html=1;container=1;dropTarget=0;collapsible=0;recursiveResize=0;outlineConnect=0;portConstraint=eastwest;newEdgeStyle={&quot;curved&quot;:0,&quot;rounded&quot;:0};" parent="1" vertex="1">
          <mxGeometry x="610" y="41" width="120" height="479" as="geometry" />
        </mxCell>
        <mxCell id="9ppKvF9D70RUMVK4zJBX-17" value="" style="html=1;points=[[0,0,0,0,5],[0,1,0,0,-5],[1,0,0,0,5],[1,1,0,0,-5]];perimeter=orthogonalPerimeter;outlineConnect=0;targetShapes=umlLifeline;portConstraint=eastwest;newEdgeStyle={&quot;curved&quot;:0,&quot;rounded&quot;:0};" parent="9ppKvF9D70RUMVK4zJBX-11" vertex="1">
          <mxGeometry x="55" y="131" width="10" height="298" as="geometry" />
        </mxCell>
        <mxCell id="9ppKvF9D70RUMVK4zJBX-12" value="Options - par catégorie" style="shape=umlLifeline;perimeter=lifelinePerimeter;whiteSpace=wrap;html=1;container=1;dropTarget=0;collapsible=0;recursiveResize=0;outlineConnect=0;portConstraint=eastwest;newEdgeStyle={&quot;curved&quot;:0,&quot;rounded&quot;:0};" parent="1" vertex="1">
          <mxGeometry x="780" y="40" width="100" height="479" as="geometry" />
        </mxCell>
        <mxCell id="9ppKvF9D70RUMVK4zJBX-22" value="" style="html=1;points=[[0,0,0,0,5],[0,1,0,0,-5],[1,0,0,0,5],[1,1,0,0,-5]];perimeter=orthogonalPerimeter;outlineConnect=0;targetShapes=umlLifeline;portConstraint=eastwest;newEdgeStyle={&quot;curved&quot;:0,&quot;rounded&quot;:0};" parent="9ppKvF9D70RUMVK4zJBX-12" vertex="1">
          <mxGeometry x="46" y="246" width="10" height="184" as="geometry" />
        </mxCell>
        <mxCell id="9ppKvF9D70RUMVK4zJBX-21" value="Affiche avec identifiant&amp;nbsp;&lt;div&gt;Utilisateur&lt;/div&gt;" style="html=1;verticalAlign=bottom;endArrow=block;curved=0;rounded=0;fontSize=12;startSize=8;endSize=8;" parent="1" edge="1">
          <mxGeometry width="80" relative="1" as="geometry">
            <mxPoint x="17.5" y="136" as="sourcePoint" />
            <mxPoint x="180" y="136" as="targetPoint" />
          </mxGeometry>
        </mxCell>
        <mxCell id="9ppKvF9D70RUMVK4zJBX-36" value="API Rest" style="shape=umlLifeline;perimeter=lifelinePerimeter;whiteSpace=wrap;html=1;container=1;dropTarget=0;collapsible=0;recursiveResize=0;outlineConnect=0;portConstraint=eastwest;newEdgeStyle={&quot;curved&quot;:0,&quot;rounded&quot;:0};" parent="1" vertex="1">
          <mxGeometry x="980" y="40" width="100" height="480" as="geometry" />
        </mxCell>
        <mxCell id="9ppKvF9D70RUMVK4zJBX-40" value="" style="html=1;points=[[0,0,0,0,5],[0,1,0,0,-5],[1,0,0,0,5],[1,1,0,0,-5]];perimeter=orthogonalPerimeter;outlineConnect=0;targetShapes=umlLifeline;portConstraint=eastwest;newEdgeStyle={&quot;curved&quot;:0,&quot;rounded&quot;:0};" parent="9ppKvF9D70RUMVK4zJBX-36" vertex="1">
          <mxGeometry x="45" y="199" width="10" height="231" as="geometry" />
        </mxCell>
        <mxCell id="f0SORPLu1wxNBxf0j8MD-3" value="" style="shape=umlLifeline;perimeter=lifelinePerimeter;whiteSpace=wrap;html=1;container=1;dropTarget=0;collapsible=0;recursiveResize=0;outlineConnect=0;portConstraint=eastwest;newEdgeStyle={&quot;curved&quot;:0,&quot;rounded&quot;:0};participant=umlActor;" parent="1" vertex="1">
          <mxGeometry x="8" y="30" width="20" height="479" as="geometry" />
        </mxCell>
        <mxCell id="f0SORPLu1wxNBxf0j8MD-7" value="Sélection d&#39;avions" style="shape=umlLifeline;perimeter=lifelinePerimeter;whiteSpace=wrap;html=1;container=1;dropTarget=0;collapsible=0;recursiveResize=0;outlineConnect=0;portConstraint=eastwest;newEdgeStyle={&quot;curved&quot;:0,&quot;rounded&quot;:0};" parent="1" vertex="1">
          <mxGeometry x="280" y="40" width="100" height="480" as="geometry" />
        </mxCell>
        <mxCell id="f0SORPLu1wxNBxf0j8MD-8" value="" style="html=1;points=[[0,0,0,0,5],[0,1,0,0,-5],[1,0,0,0,5],[1,1,0,0,-5]];perimeter=orthogonalPerimeter;outlineConnect=0;targetShapes=umlLifeline;portConstraint=eastwest;newEdgeStyle={&quot;curved&quot;:0,&quot;rounded&quot;:0};" parent="f0SORPLu1wxNBxf0j8MD-7" vertex="1">
          <mxGeometry x="45" y="100" width="10" height="110" as="geometry" />
        </mxCell>
        <mxCell id="f0SORPLu1wxNBxf0j8MD-9" value="Accès aux lignes spécifiques" style="html=1;verticalAlign=bottom;endArrow=block;curved=0;rounded=0;fontSize=12;startSize=8;endSize=8;" parent="1" edge="1">
          <mxGeometry x="0.0688" y="2" width="80" relative="1" as="geometry">
            <mxPoint x="508" y="240" as="sourcePoint" />
            <mxPoint x="660.91" y="240" as="targetPoint" />
            <mxPoint as="offset" />
          </mxGeometry>
        </mxCell>
        <mxCell id="zopguFTVqJUVnxxEzmCS-1" value="Accès aux options spécifiques" style="html=1;verticalAlign=bottom;endArrow=block;curved=0;rounded=0;fontSize=12;startSize=8;endSize=8;" parent="1" edge="1">
          <mxGeometry width="80" relative="1" as="geometry">
            <mxPoint x="680" y="344" as="sourcePoint" />
            <mxPoint x="827.5" y="344" as="targetPoint" />
          </mxGeometry>
        </mxCell>
        <mxCell id="haEERoZPzBM3zG14rT2W-1" value="Diagramme de séquence - Sélectionner des options&amp;nbsp;" style="text;html=1;align=center;verticalAlign=middle;whiteSpace=wrap;rounded=0;" vertex="1" parent="1">
          <mxGeometry x="80" y="-10" width="300" height="30" as="geometry" />
        </mxCell>
        <mxCell id="haEERoZPzBM3zG14rT2W-2" value="Utilisateur authentifié" style="text;html=1;align=center;verticalAlign=middle;whiteSpace=wrap;rounded=0;" vertex="1" parent="1">
          <mxGeometry y="70" width="60" height="30" as="geometry" />
        </mxCell>
        <mxCell id="haEERoZPzBM3zG14rT2W-3" value="" style="endArrow=none;html=1;rounded=0;" edge="1" parent="1">
          <mxGeometry width="50" height="50" relative="1" as="geometry">
            <mxPoint x="920" y="540" as="sourcePoint" />
            <mxPoint x="920" y="-10" as="targetPoint" />
          </mxGeometry>
        </mxCell>
        <mxCell id="haEERoZPzBM3zG14rT2W-4" value="Affiche tous les modèles" style="html=1;verticalAlign=bottom;endArrow=block;curved=0;rounded=0;fontSize=12;startSize=8;endSize=8;" edge="1" parent="1">
          <mxGeometry width="80" relative="1" as="geometry">
            <mxPoint x="189.5" y="145" as="sourcePoint" />
            <mxPoint x="322" y="145" as="targetPoint" />
            <mxPoint as="offset" />
          </mxGeometry>
        </mxCell>
        <mxCell id="haEERoZPzBM3zG14rT2W-5" value="Requête" style="html=1;verticalAlign=bottom;endArrow=block;curved=0;rounded=0;fontSize=12;startSize=8;endSize=8;" edge="1" parent="1">
          <mxGeometry width="80" relative="1" as="geometry">
            <mxPoint x="680" y="259" as="sourcePoint" />
            <mxPoint x="1023.5" y="259" as="targetPoint" />
          </mxGeometry>
        </mxCell>
        <mxCell id="haEERoZPzBM3zG14rT2W-6" value="Réponse&amp;nbsp;&lt;div&gt;enregistrement options&lt;/div&gt;" style="html=1;verticalAlign=bottom;endArrow=block;curved=0;rounded=0;fontSize=12;startSize=8;endSize=8;" edge="1" parent="1">
          <mxGeometry width="80" relative="1" as="geometry">
            <mxPoint x="1024" y="418" as="sourcePoint" />
            <mxPoint x="834" y="418" as="targetPoint" />
          </mxGeometry>
        </mxCell>
        <mxCell id="haEERoZPzBM3zG14rT2W-7" value="Requête&amp;nbsp;&lt;div&gt;Envoi des sélections&lt;/div&gt;" style="html=1;verticalAlign=bottom;endArrow=block;curved=0;rounded=0;fontSize=12;startSize=8;endSize=8;" edge="1" parent="1">
          <mxGeometry width="80" relative="1" as="geometry">
            <mxPoint x="840" y="379" as="sourcePoint" />
            <mxPoint x="1030" y="379" as="targetPoint" />
          </mxGeometry>
        </mxCell>
        <mxCell id="haEERoZPzBM3zG14rT2W-8" value="Réponse" style="html=1;verticalAlign=bottom;endArrow=block;curved=0;rounded=0;fontSize=12;startSize=8;endSize=8;" edge="1" parent="1">
          <mxGeometry width="80" relative="1" as="geometry">
            <mxPoint x="1025" y="276" as="sourcePoint" />
            <mxPoint x="670" y="276" as="targetPoint" />
          </mxGeometry>
        </mxCell>
        <mxCell id="haEERoZPzBM3zG14rT2W-9" value="Avion(id)" style="shape=umlLifeline;perimeter=lifelinePerimeter;whiteSpace=wrap;html=1;container=1;dropTarget=0;collapsible=0;recursiveResize=0;outlineConnect=0;portConstraint=eastwest;newEdgeStyle={&quot;curved&quot;:0,&quot;rounded&quot;:0};" vertex="1" parent="1">
          <mxGeometry x="450" y="40" width="100" height="480" as="geometry" />
        </mxCell>
        <mxCell id="haEERoZPzBM3zG14rT2W-10" value="" style="html=1;points=[[0,0,0,0,5],[0,1,0,0,-5],[1,0,0,0,5],[1,1,0,0,-5]];perimeter=orthogonalPerimeter;outlineConnect=0;targetShapes=umlLifeline;portConstraint=eastwest;newEdgeStyle={&quot;curved&quot;:0,&quot;rounded&quot;:0};" vertex="1" parent="haEERoZPzBM3zG14rT2W-9">
          <mxGeometry x="45" y="140" width="10" height="70" as="geometry" />
        </mxCell>
        <mxCell id="haEERoZPzBM3zG14rT2W-14" value="Modèle sélectionné" style="html=1;verticalAlign=bottom;endArrow=block;curved=0;rounded=0;fontSize=12;startSize=8;endSize=8;" edge="1" parent="1">
          <mxGeometry width="80" relative="1" as="geometry">
            <mxPoint x="337" y="192" as="sourcePoint" />
            <mxPoint x="496.5" y="192" as="targetPoint" />
          </mxGeometry>
        </mxCell>
        <mxCell id="haEERoZPzBM3zG14rT2W-16" value="Requête" style="html=1;verticalAlign=bottom;endArrow=block;curved=0;rounded=0;fontSize=12;startSize=8;endSize=8;" edge="1" parent="1" target="9ppKvF9D70RUMVK4zJBX-36">
          <mxGeometry width="80" relative="1" as="geometry">
            <mxPoint x="506" y="201" as="sourcePoint" />
            <mxPoint x="1020" y="201" as="targetPoint" />
          </mxGeometry>
        </mxCell>
        <mxCell id="haEERoZPzBM3zG14rT2W-17" value="Réponse" style="html=1;verticalAlign=bottom;endArrow=block;curved=0;rounded=0;fontSize=12;startSize=8;endSize=8;" edge="1" parent="1">
          <mxGeometry width="80" relative="1" as="geometry">
            <mxPoint x="1030" y="218" as="sourcePoint" />
            <mxPoint x="504.5" y="218" as="targetPoint" />
          </mxGeometry>
        </mxCell>
        <mxCell id="haEERoZPzBM3zG14rT2W-18" value="Requête" style="html=1;verticalAlign=bottom;endArrow=block;curved=0;rounded=0;fontSize=12;startSize=8;endSize=8;" edge="1" parent="1">
          <mxGeometry width="80" relative="1" as="geometry">
            <mxPoint x="340" y="150" as="sourcePoint" />
            <mxPoint x="1031.5" y="152" as="targetPoint" />
          </mxGeometry>
        </mxCell>
        <mxCell id="haEERoZPzBM3zG14rT2W-19" value="Réponse" style="html=1;verticalAlign=bottom;endArrow=block;curved=0;rounded=0;fontSize=12;startSize=8;endSize=8;" edge="1" parent="1">
          <mxGeometry width="80" relative="1" as="geometry">
            <mxPoint x="1030" y="169" as="sourcePoint" />
            <mxPoint x="340" y="170" as="targetPoint" />
          </mxGeometry>
        </mxCell>
      </root>
    </mxGraphModel>
  </diagram>
</mxfile>
